<svg width="104" height="66" viewBox="0 0 104 66" fill="none" xmlns="http://www.w3.org/2000/svg">
<g opacity="0.2" clip-path="url(#clip0_698_6824)" filter="url(#filter0_f_698_6824)">
<path d="M53.4328 6.83716C66.9407 6.83716 78.9708 13.333 86.6019 23.3721L85.4439 24.145C78.0633 14.4794 66.4654 8.23533 53.4328 8.23533C31.1962 8.23533 13.0992 26.4203 13.0992 48.7651C13.0992 71.1098 31.1962 89.2948 53.4328 89.2948C75.6694 89.2948 93.7664 71.1098 93.7664 48.7564C93.7664 43.1116 92.6083 37.736 90.5255 32.8467L91.5972 31.848C93.8788 37.0239 95.1492 42.7382 95.1492 48.7564C95.1492 71.8741 76.43 90.6756 53.4328 90.6756C30.4357 90.6756 11.7164 71.8654 11.7164 48.7564C11.7164 25.6474 30.427 6.83716 53.4328 6.83716Z" fill="url(#paint0_linear_698_6824)"/>
<path d="M6.20887 8.26324L2.00007 -2L52.0044 48.0043H35.7914L6.20887 8.26324Z" fill="url(#paint1_linear_698_6824)"/>
<path d="M102 98L51.9957 47.9956H68.2086L97.7912 87.7367" fill="url(#paint2_linear_698_6824)"/>
<path d="M10.2308 74.066L1.24283 77.4703L32.9255 48.0044H49.1384L10.2308 74.0747V74.066Z" fill="url(#paint3_linear_698_6824)"/>
<path d="M88.3848 25.5247L89.5342 24.7518L93.7689 21.9207L102.748 18.5165L91.8417 28.6685L90.7874 29.6498L71.0743 47.9911H54.8527L88.3848 25.5247Z" fill="url(#paint4_linear_698_6824)"/>
</g>
<defs>
<filter id="filter0_f_698_6824" x="0" y="-4" width="104" height="104" filterUnits="userSpaceOnUse" color-interpolation-filters="sRGB">
<feFlood flood-opacity="0" result="BackgroundImageFix"/>
<feBlend mode="normal" in="SourceGraphic" in2="BackgroundImageFix" result="shape"/>
<feGaussianBlur stdDeviation="1" result="effect1_foregroundBlur_698_6824"/>
</filter>
<linearGradient id="paint0_linear_698_6824" x1="93.196" y1="53.663" x2="13.1828" y2="43.8915" gradientUnits="userSpaceOnUse">
<stop stop-color="#4E83F9"/>
<stop offset="0.75" stop-color="#4E83F9" stop-opacity="0"/>
</linearGradient>
<linearGradient id="paint1_linear_698_6824" x1="1.91365" y1="-1.92184" x2="47.4732" y2="51.7378" gradientUnits="userSpaceOnUse">
<stop offset="0.3" stop-color="#4E83F9" stop-opacity="0.2"/>
<stop offset="1" stop-color="#4E83F9"/>
</linearGradient>
<linearGradient id="paint2_linear_698_6824" x1="102.086" y1="97.9305" x2="56.5268" y2="44.2709" gradientUnits="userSpaceOnUse">
<stop offset="0.3" stop-color="#4E83F9" stop-opacity="0.2"/>
<stop offset="1" stop-color="#4E83F9"/>
</linearGradient>
<linearGradient id="paint3_linear_698_6824" x1="5.99609" y1="82.2033" x2="44.3125" y2="43.7352" gradientUnits="userSpaceOnUse">
<stop stop-color="#4E83F9"/>
<stop offset="1" stop-color="#4E83F9" stop-opacity="0"/>
</linearGradient>
<linearGradient id="paint4_linear_698_6824" x1="98.1074" y1="13.853" x2="59.3149" y2="52.4664" gradientUnits="userSpaceOnUse">
<stop stop-color="#4E83F9"/>
<stop offset="1" stop-color="#4E83F9" stop-opacity="0"/>
</linearGradient>
<clipPath id="clip0_698_6824">
<rect width="100" height="100" fill="white" transform="matrix(-1 0 0 1 102 -2)"/>
</clipPath>
</defs>
</svg>
