<svg width="321" height="392" viewBox="0 0 321 392" fill="none" xmlns="http://www.w3.org/2000/svg">
<g opacity="0.4" clip-path="url(#clip0_323_2118)">
<path d="M127.218 34.6418C181.114 34.6418 229.114 60.1056 259.563 99.4588L254.942 102.489C225.494 64.5992 179.218 40.1226 127.218 40.1226C38.4936 40.1226 -33.7133 111.408 -33.7133 198.999C-33.7133 286.591 38.4936 357.876 127.218 357.876C215.942 357.876 288.149 286.591 288.149 198.965C288.149 176.838 283.528 155.765 275.218 136.599L279.494 132.684C288.597 152.974 293.666 175.374 293.666 198.965C293.666 289.586 218.976 363.289 127.218 363.289C35.4591 363.289 -39.2306 289.552 -39.2306 198.965C-39.2306 108.378 35.4246 34.6418 127.218 34.6418Z" fill="url(#paint0_linear_323_2118)"/>
<path d="M-61.2065 40.2319L-77.9996 0L121.518 196.017H56.8279L-61.2065 40.2319Z" fill="url(#paint1_linear_323_2118)"/>
<path d="M321 392L121.483 195.983H186.172L304.207 351.768" fill="url(#paint2_linear_323_2118)"/>
<path d="M-45.1594 298.179L-81.0214 311.523L45.3924 196.017H110.082L-45.1594 298.213V298.179Z" fill="url(#paint3_linear_323_2118)"/>
<path d="M266.675 107.897L271.261 104.867L288.158 93.7694L323.985 80.4247L280.468 120.22L276.261 124.067L197.606 195.965H132.882L266.675 107.897Z" fill="url(#paint4_linear_323_2118)"/>
</g>
<defs>
<linearGradient id="paint0_linear_323_2118" x1="285.873" y1="218.199" x2="-33.2108" y2="178.536" gradientUnits="userSpaceOnUse">
<stop stop-color="white"/>
<stop offset="0.75" stop-color="white" stop-opacity="0"/>
</linearGradient>
<linearGradient id="paint1_linear_323_2118" x1="-78.3445" y1="0.306377" x2="99.71" y2="213.762" gradientUnits="userSpaceOnUse">
<stop offset="0.3" stop-color="white" stop-opacity="0.2"/>
<stop offset="1" stop-color="white"/>
</linearGradient>
<linearGradient id="paint2_linear_323_2118" x1="321.345" y1="391.728" x2="143.29" y2="178.272" gradientUnits="userSpaceOnUse">
<stop offset="0.3" stop-color="white" stop-opacity="0.2"/>
<stop offset="1" stop-color="white"/>
</linearGradient>
<linearGradient id="paint3_linear_323_2118" x1="-62.0559" y1="330.077" x2="88.1104" y2="176.624" gradientUnits="userSpaceOnUse">
<stop stop-color="white"/>
<stop offset="1" stop-color="white" stop-opacity="0"/>
</linearGradient>
<linearGradient id="paint4_linear_323_2118" x1="305.468" y1="62.1438" x2="153.413" y2="216.2" gradientUnits="userSpaceOnUse">
<stop stop-color="white"/>
<stop offset="1" stop-color="white" stop-opacity="0"/>
</linearGradient>
<clipPath id="clip0_323_2118">
<rect width="399" height="392" fill="white" transform="matrix(-1 0 0 1 321 0)"/>
</clipPath>
</defs>
</svg>
