<svg width="42" height="42" viewBox="0 0 42 42" fill="none" xmlns="http://www.w3.org/2000/svg">
<g clip-path="url(#clip0_2078_4266)">
<path d="M21.3803 3.65991C26.9953 3.65991 31.9961 6.35019 35.1682 10.5079L34.6868 10.828C31.6188 6.82494 26.7977 4.23897 21.3803 4.23897C12.1368 4.23897 4.61412 11.7703 4.61412 21.0244C4.61412 30.2785 12.1368 37.8099 21.3803 37.8099C30.6237 37.8099 38.1464 30.2785 38.1464 21.0208C38.1464 18.683 37.665 16.4567 36.7992 14.4318L37.2447 14.0182C38.1931 16.1618 38.7212 18.5284 38.7212 21.0208C38.7212 30.595 30.9399 38.3817 21.3803 38.3817C11.8207 38.3817 4.03933 30.5914 4.03933 21.0208C4.03933 11.4502 11.8171 3.65991 21.3803 3.65991Z" fill="url(#paint0_linear_2078_4266)"/>
<path d="M1.74955 4.25054L7.62939e-06 0L20.7861 20.7094H14.0466L1.74955 4.25054Z" fill="url(#paint1_linear_2078_4266)"/>
<path d="M41.5688 41.4151L20.7827 20.7057H27.5222L39.8193 37.1645" fill="url(#paint2_linear_2078_4266)"/>
<path d="M3.42184 31.5028L-0.314344 32.9127L12.8557 20.7094H19.5952L3.42184 31.5064V31.5028Z" fill="url(#paint3_linear_2078_4266)"/>
<path d="M35.9092 11.3994L36.387 11.0793L38.1473 9.90683L41.8799 8.49695L37.3462 12.7014L36.9079 13.1078L28.7134 20.7039H21.9703L35.9092 11.3994Z" fill="url(#paint4_linear_2078_4266)"/>
</g>
<defs>
<linearGradient id="paint0_linear_2078_4266" x1="37.9093" y1="23.0529" x2="4.65251" y2="18.9764" gradientUnits="userSpaceOnUse">
<stop stop-color="#4E83F9"/>
<stop offset="0.75" stop-color="#4E83F9" stop-opacity="0"/>
</linearGradient>
<linearGradient id="paint1_linear_2078_4266" x1="-0.0359172" y1="0.032369" x2="18.8212" y2="22.3244" gradientUnits="userSpaceOnUse">
<stop offset="0.3" stop-color="#4E83F9" stop-opacity="0.2"/>
<stop offset="1" stop-color="#4E83F9"/>
</linearGradient>
<linearGradient id="paint2_linear_2078_4266" x1="41.6048" y1="41.3863" x2="22.7477" y2="19.0942" gradientUnits="userSpaceOnUse">
<stop offset="0.3" stop-color="#4E83F9" stop-opacity="0.2"/>
<stop offset="1" stop-color="#4E83F9"/>
</linearGradient>
<linearGradient id="paint3_linear_2078_4266" x1="1.66152" y1="34.8729" x2="17.53" y2="18.8826" gradientUnits="userSpaceOnUse">
<stop stop-color="#4E83F9"/>
<stop offset="1" stop-color="#4E83F9" stop-opacity="0"/>
</linearGradient>
<linearGradient id="paint4_linear_2078_4266" x1="39.9507" y1="6.56556" x2="23.8846" y2="22.6168" gradientUnits="userSpaceOnUse">
<stop stop-color="#4E83F9"/>
<stop offset="1" stop-color="#4E83F9" stop-opacity="0"/>
</linearGradient>
<clipPath id="clip0_2078_4266">
<rect width="41.5687" height="41.4151" fill="white" transform="matrix(-1 0 0 1 41.5688 0)"/>
</clipPath>
</defs>
</svg>
