<svg width="20" height="20" viewBox="0 0 20 20" fill="none" xmlns="http://www.w3.org/2000/svg">
<path d="M14.1667 14.1666H12.4792C12.243 14.1666 12.0486 14.0866 11.8958 13.9266C11.743 13.7666 11.6667 13.5688 11.6667 13.3333C11.6667 13.0977 11.7467 12.8999 11.9067 12.7399C12.0667 12.5799 12.2644 12.4999 12.5 12.4999H14.1667V10.8333C14.1667 10.5971 14.2467 10.3994 14.4067 10.2399C14.5667 10.0805 14.7644 10.0005 15 9.99992C15.2355 9.99936 15.4336 10.0794 15.5942 10.2399C15.7547 10.4005 15.8344 10.5983 15.8333 10.8333V12.4999H17.5C17.7361 12.4999 17.9342 12.5799 18.0942 12.7399C18.2542 12.8999 18.3339 13.0977 18.3333 13.3333C18.3328 13.5688 18.2528 13.7669 18.0933 13.9274C17.9339 14.088 17.7361 14.1677 17.5 14.1666H15.8333V15.8333C15.8333 16.0694 15.7533 16.2674 15.5933 16.4274C15.4333 16.5874 15.2355 16.6671 15 16.6666C14.7644 16.666 14.5667 16.586 14.4067 16.4266C14.2467 16.2671 14.1667 16.0694 14.1667 15.8333V14.1666ZM8.33332 14.1666H5.83332C4.68055 14.1666 3.69805 13.7602 2.88582 12.9474C2.0736 12.1346 1.66721 11.1521 1.66666 9.99992C1.6661 8.8477 2.07249 7.8652 2.88582 7.05242C3.69916 6.23964 4.68166 5.83325 5.83332 5.83325H8.33332C8.56944 5.83325 8.76749 5.91325 8.92749 6.07325C9.08749 6.23325 9.16721 6.43103 9.16666 6.66659C9.1661 6.90214 9.0861 7.1002 8.92666 7.26075C8.76721 7.42131 8.56944 7.50103 8.33332 7.49992H5.83332C5.13888 7.49992 4.5486 7.74297 4.06249 8.22909C3.57638 8.7152 3.33332 9.30547 3.33332 9.99992C3.33332 10.6944 3.57638 11.2846 4.06249 11.7708C4.5486 12.2569 5.13888 12.4999 5.83332 12.4999H8.33332C8.56944 12.4999 8.76749 12.5799 8.92749 12.7399C9.08749 12.8999 9.16721 13.0977 9.16666 13.3333C9.1661 13.5688 9.0861 13.7669 8.92666 13.9274C8.76721 14.088 8.56944 14.1677 8.33332 14.1666ZM7.49999 10.8333C7.26388 10.8333 7.0661 10.7533 6.90666 10.5933C6.74721 10.4333 6.66721 10.2355 6.66666 9.99992C6.6661 9.76436 6.7461 9.56659 6.90666 9.40659C7.06721 9.24659 7.26499 9.16659 7.49999 9.16659H12.5C12.7361 9.16659 12.9342 9.24659 13.0942 9.40659C13.2542 9.56659 13.3339 9.76436 13.3333 9.99992C13.3328 10.2355 13.2528 10.4335 13.0933 10.5941C12.9339 10.7546 12.7361 10.8344 12.5 10.8333H7.49999ZM18.3333 9.99992H16.6667C16.6667 9.30547 16.4236 8.7152 15.9375 8.22909C15.4514 7.74297 14.8611 7.49992 14.1667 7.49992H11.6458C11.4097 7.49992 11.2153 7.41992 11.0625 7.25992C10.9097 7.09992 10.8333 6.90214 10.8333 6.66659C10.8333 6.43103 10.9133 6.23325 11.0733 6.07325C11.2333 5.91325 11.4311 5.83325 11.6667 5.83325H14.1667C15.3194 5.83325 16.3022 6.23964 17.115 7.05242C17.9278 7.8652 18.3339 8.8477 18.3333 9.99992Z" fill="#5D5D5D"/>
</svg>
