<svg width="24" height="24" viewBox="0 0 24 24" fill="none" xmlns="http://www.w3.org/2000/svg">
<path d="M3 21C2.71667 21 2.47934 20.904 2.288 20.712C2.09667 20.52 2.00067 20.2827 2 20C1.99934 19.7173 2.09534 19.48 2.288 19.288C2.48067 19.096 2.718 19 3 19H11V7.825C10.5667 7.675 10.1917 7.44167 9.875 7.125C9.55834 6.80834 9.325 6.43334 9.175 6H6L8.75 12.45C8.83334 12.6333 8.88334 12.821 8.9 13.013C8.91667 13.205 8.90834 13.4007 8.875 13.6C8.725 14.3667 8.31267 14.9583 7.638 15.375C6.96334 15.7917 6.25067 16 5.5 16C4.74934 16 4.037 15.7917 3.363 15.375C2.689 14.9583 2.27634 14.3667 2.125 13.6C2.09167 13.4 2.08334 13.2043 2.1 13.013C2.11667 12.8217 2.16667 12.634 2.25 12.45L5 6H4C3.71667 6 3.47934 5.90433 3.288 5.713C3.09667 5.52167 3.00067 5.284 3 5C2.99934 4.716 3.09534 4.47867 3.288 4.288C3.48067 4.09734 3.718 4.00133 4 4H9.175C9.375 3.41667 9.73334 2.93767 10.25 2.563C10.7667 2.18834 11.35 2.00067 12 2C12.65 1.99934 13.2333 2.187 13.75 2.563C14.2667 2.939 14.625 3.418 14.825 4H20C20.2833 4 20.521 4.096 20.713 4.288C20.905 4.48 21.0007 4.71733 21 5C20.9993 5.28267 20.9033 5.52033 20.712 5.713C20.5207 5.90567 20.2833 6.00134 20 6H19L21.75 12.45C21.8333 12.6333 21.8833 12.821 21.9 13.013C21.9167 13.205 21.9083 13.4007 21.875 13.6C21.725 14.3667 21.3127 14.9583 20.638 15.375C19.9633 15.7917 19.2507 16 18.5 16C17.7493 16 17.037 15.7917 16.363 15.375C15.689 14.9583 15.2763 14.3667 15.125 13.6C15.0917 13.4 15.0833 13.2043 15.1 13.013C15.1167 12.8217 15.1667 12.634 15.25 12.45L18 6H14.825C14.675 6.43334 14.4417 6.80834 14.125 7.125C13.8083 7.44167 13.4333 7.675 13 7.825V19H21C21.2833 19 21.521 19.096 21.713 19.288C21.905 19.48 22.0007 19.7173 22 20C21.9993 20.2827 21.9033 20.5203 21.712 20.713C21.5207 20.9057 21.2833 21.0013 21 21H3ZM16.625 13H20.375L18.5 8.65L16.625 13ZM3.625 13H7.375L5.5 8.65L3.625 13ZM12 6C12.2833 6 12.521 5.904 12.713 5.712C12.905 5.52 13.0007 5.28267 13 5C12.9993 4.71733 12.9033 4.48 12.712 4.288C12.5207 4.096 12.2833 4 12 4C11.7167 4 11.4793 4.096 11.288 4.288C11.0967 4.48 11.0007 4.71733 11 5C10.9993 5.28267 11.0953 5.52033 11.288 5.713C11.4807 5.90567 11.718 6.00134 12 6Z" fill="white"/>
</svg>
