<svg width="24" height="24" viewBox="0 0 24 24" fill="none" xmlns="http://www.w3.org/2000/svg">
<path d="M9.5502 12L16.9002 19.35C17.1502 19.6 17.2712 19.8916 17.2632 20.225C17.2552 20.5583 17.1259 20.85 16.8752 21.1C16.6245 21.35 16.3329 21.475 16.0002 21.475C15.6675 21.475 15.3759 21.35 15.1252 21.1L7.4252 13.425C7.2252 13.225 7.0752 13 6.9752 12.75C6.8752 12.5 6.8252 12.25 6.8252 12C6.8252 11.75 6.8752 11.5 6.9752 11.25C7.0752 11 7.2252 10.775 7.4252 10.575L15.1252 2.87497C15.3752 2.62497 15.6712 2.50397 16.0132 2.51197C16.3552 2.51997 16.6509 2.6493 16.9002 2.89997C17.1495 3.15064 17.2745 3.4423 17.2752 3.77497C17.2759 4.10764 17.1509 4.3993 16.9002 4.64997L9.5502 12Z" fill="#5D5D5D"/>
</svg>
