<svg width="195" height="31" viewBox="0 0 195 31" fill="none" xmlns="http://www.w3.org/2000/svg">
<path d="M120.101 30.3578C117.601 30.3578 115.257 29.106 114 27.1008L100.136 0H107.978L120.075 23.9654L132.434 0H140.08L126.215 27.1251C124.932 29.1303 122.602 30.3699 120.114 30.3699L120.101 30.3578Z" fill="#4E83F9"/>
<path d="M150.365 29.9456H143.47V0.0123291H150.365V29.9456Z" fill="#4E83F9"/>
<path d="M195 0.0123291H184.657L161.836 17.0061V0.0123291H155.306V29.9456H161.836V24.6897L170.88 17.9529L185.094 29.9456H195L176.063 14.0929L195 0.0123291Z" fill="#4E83F9"/>
<path d="M35.7367 0.0123291H41.7332V24.5926C41.6847 27.4451 39.3419 29.7756 36.5014 29.7756C35.3604 29.7756 34.2072 29.3508 33.3575 28.6711L5.96016 6.80982V29.7756H0V5.19542C0 2.30648 2.34279 0.0123291 5.23183 0.0123291C6.37288 0.0123291 7.48965 0.400757 8.37578 1.11692L35.7367 22.9903V0.0123291Z" fill="#4E83F9"/>
<path d="M55.0737 29.7755C52.476 29.7755 49.9996 28.6587 48.3002 26.7166C46.5886 24.7623 45.8482 22.2497 46.1881 19.6278C46.7829 15.1851 50.7887 11.8349 55.4864 11.8349H77.8097V10.8881C77.8097 8.21769 75.6125 6.04491 72.9056 6.04491H49.9754C48.3002 6.04491 46.9407 4.68542 46.9407 3.01032C46.9407 1.33522 48.3002 0 49.9754 0H72.9056C78.9507 0 83.8548 4.89177 83.8548 10.8881V29.9333L55.0615 29.7633H55.0737V29.7755ZM55.0737 17.9405C53.4592 17.9405 52.1482 19.2515 52.1482 20.8659C52.1482 22.4803 53.4956 23.7912 55.0737 23.7912H77.8218V17.9527H55.0737V17.9405Z" fill="#4E83F9"/>
<path d="M94.6103 0.0123291H89.8883C89.2715 0.0123291 88.7715 0.512307 88.7715 1.12906V5.85089C88.7715 6.46764 89.2715 6.96762 89.8883 6.96762H94.6103C95.227 6.96762 95.727 6.46764 95.727 5.85089V1.12906C95.727 0.512307 95.227 0.0123291 94.6103 0.0123291Z" fill="#4E83F9"/>
<path d="M94.6103 22.9907H89.8883C89.2715 22.9907 88.7715 23.4907 88.7715 24.1075V28.8293C88.7715 29.446 89.2715 29.946 89.8883 29.946H94.6103C95.227 29.946 95.727 29.446 95.727 28.8293V24.1075C95.727 23.4907 95.227 22.9907 94.6103 22.9907Z" fill="#4E83F9"/>
</svg>
