<svg width="14" height="14" viewBox="0 0 14 14" fill="none" xmlns="http://www.w3.org/2000/svg">
<path d="M1.58946 12.25C1.48251 12.25 1.38529 12.2234 1.29779 12.1701C1.21029 12.1168 1.14223 12.0462 1.09362 11.9583C1.04501 11.8704 1.01837 11.7756 1.01371 11.6737C1.00904 11.5718 1.03568 11.4722 1.09362 11.375L6.48946 2.04167C6.54779 1.94444 6.62323 1.87153 6.71579 1.82292C6.80835 1.77431 6.90304 1.75 6.99987 1.75C7.09671 1.75 7.1916 1.77431 7.28454 1.82292C7.37748 1.87153 7.45273 1.94444 7.51029 2.04167L12.9061 11.375C12.9645 11.4722 12.9913 11.572 12.9866 11.6743C12.982 11.7765 12.9551 11.8712 12.9061 11.9583C12.8571 12.0454 12.7891 12.116 12.702 12.1701C12.6148 12.2241 12.5176 12.2508 12.4103 12.25H1.58946ZM2.59571 11.0833H11.404L6.99987 3.5L2.59571 11.0833ZM6.99987 10.5C7.16515 10.5 7.30379 10.444 7.41579 10.332C7.52779 10.22 7.5836 10.0816 7.58321 9.91667C7.58282 9.75178 7.52682 9.61333 7.41521 9.50133C7.3036 9.38933 7.16515 9.33333 6.99987 9.33333C6.8346 9.33333 6.69615 9.38933 6.58454 9.50133C6.47293 9.61333 6.41693 9.75178 6.41654 9.91667C6.41615 10.0816 6.47215 10.2202 6.58454 10.3326C6.69693 10.445 6.83537 10.5008 6.99987 10.5ZM6.99987 8.75C7.16515 8.75 7.30379 8.694 7.41579 8.582C7.52779 8.47 7.5836 8.33156 7.58321 8.16667V6.41667C7.58321 6.25139 7.52721 6.11294 7.41521 6.00133C7.30321 5.88972 7.16476 5.83372 6.99987 5.83333C6.83498 5.83294 6.69654 5.88894 6.58454 6.00133C6.47254 6.11372 6.41654 6.25217 6.41654 6.41667V8.16667C6.41654 8.33194 6.47254 8.47058 6.58454 8.58258C6.69654 8.69458 6.83498 8.75039 6.99987 8.75Z" fill="#5D5D5D"/>
</svg>
