<svg width="16" height="16" viewBox="0 0 16 16" fill="none" xmlns="http://www.w3.org/2000/svg">
<path d="M9.63353 8.00002L4.73353 12.9C4.56686 13.0667 4.48619 13.2611 4.49153 13.4834C4.49686 13.7056 4.58308 13.9 4.7502 14.0667C4.91731 14.2334 5.11175 14.3167 5.33353 14.3167C5.55531 14.3167 5.74975 14.2334 5.91686 14.0667L11.0502 8.95002C11.1835 8.81669 11.2835 8.66669 11.3502 8.50002C11.4169 8.33335 11.4502 8.16669 11.4502 8.00002C11.4502 7.83335 11.4169 7.66669 11.3502 7.50002C11.2835 7.33335 11.1835 7.18335 11.0502 7.05002L5.91686 1.91669C5.7502 1.75002 5.55286 1.66935 5.32486 1.67469C5.09686 1.68002 4.89975 1.76624 4.73353 1.93335C4.56731 2.10046 4.48397 2.29491 4.48353 2.51669C4.48308 2.73846 4.56642 2.93291 4.73353 3.10002L9.63353 8.00002Z" fill="#A6A6A6"/>
</svg>
