<svg width="266" height="42" viewBox="0 0 266 42" fill="none" xmlns="http://www.w3.org/2000/svg">
<path d="M163.831 41.4112C160.42 41.4112 157.223 39.7036 155.509 36.9683L136.596 0H147.293L163.795 32.6913L180.654 0H191.084L172.171 37.0015C170.421 39.7368 167.242 41.4277 163.849 41.4277L163.831 41.4112Z" fill="white"/>
<path d="M205.113 40.8488H195.708V0.0167847H205.113V40.8488Z" fill="white"/>
<path d="M266 0.0167847H251.892L220.762 23.198V0.0167847H211.854V40.8488H220.762V33.6792L233.098 24.4895L252.488 40.8488H266L240.169 19.2241L266 0.0167847Z" fill="white"/>
<path d="M48.7485 0.0167847H56.9285V33.5468C56.8622 37.4379 53.6664 40.617 49.7917 40.617C48.2352 40.617 46.6621 40.0375 45.503 39.1102L8.13027 9.28927V40.617H0V7.08706C0 3.14625 3.19581 0.0167847 7.13675 0.0167847C8.69326 0.0167847 10.2167 0.546641 11.4254 1.52356L48.7485 31.3611V0.0167847Z" fill="white"/>
<path d="M75.1264 40.6168C71.5828 40.6168 68.2049 39.0935 65.8867 36.4442C63.5519 33.7783 62.5419 30.3508 63.0055 26.7743C63.8169 20.7141 69.2812 16.1441 75.6894 16.1441H106.141V14.8525C106.141 11.2098 103.144 8.24589 99.451 8.24589H68.1718C65.8867 8.24589 64.0321 6.39139 64.0321 4.10639C64.0321 1.82138 65.8867 0 68.1718 0H99.451C107.697 0 114.387 6.67288 114.387 14.8525V40.8321L75.1098 40.6002H75.1264V40.6168ZM75.1264 24.4727C72.9241 24.4727 71.1358 26.261 71.1358 28.4632C71.1358 30.6654 72.9738 32.4537 75.1264 32.4537H106.157V24.4893H75.1264V24.4727Z" fill="white"/>
<path d="M129.058 0.0167847H122.617C121.776 0.0167847 121.094 0.698806 121.094 1.54012V7.98119C121.094 8.8225 121.776 9.50452 122.617 9.50452H129.058C129.9 9.50452 130.582 8.8225 130.582 7.98119V1.54012C130.582 0.698806 129.9 0.0167847 129.058 0.0167847Z" fill="white"/>
<path d="M129.058 31.3616H122.617C121.776 31.3616 121.094 32.0437 121.094 32.885V39.326C121.094 40.1674 121.776 40.8494 122.617 40.8494H129.058C129.9 40.8494 130.582 40.1674 130.582 39.326V32.885C130.582 32.0437 129.9 31.3616 129.058 31.3616Z" fill="white"/>
</svg>
