<svg width="220" height="190" viewBox="0 0 220 190" fill="none" xmlns="http://www.w3.org/2000/svg">
<g opacity="0.6" clip-path="url(#clip0_676_3545)">
<path d="M98.5821 21.7395C132.352 21.7395 162.427 37.7193 181.505 62.4155L178.61 64.3168C160.159 40.5393 131.164 25.179 98.5821 25.179C42.9906 25.179 -2.25183 69.9141 -2.25183 124.882C-2.25183 179.85 42.9906 224.585 98.5821 224.585C154.174 224.585 199.416 179.85 199.416 124.861C199.416 110.975 196.521 97.7506 191.314 85.723L193.993 83.2662C199.697 95.9988 202.873 110.056 202.873 124.861C202.873 181.73 156.075 227.982 98.5821 227.982C41.0893 227.982 -5.70877 181.709 -5.70877 124.861C-5.70877 68.0127 41.0677 21.7395 98.5821 21.7395Z" fill="url(#paint0_linear_676_3545)"/>
<path d="M-19.4776 25.2476L-29.9996 0L95.0112 123.011H54.4789L-19.4776 25.2476Z" fill="url(#paint1_linear_676_3545)"/>
<path d="M220 246L94.9892 122.989H135.522L209.478 220.752" fill="url(#paint2_linear_676_3545)"/>
<path d="M-9.42287 187.122L-31.8928 195.497L47.3138 123.011H87.8462L-9.42287 187.144V187.122Z" fill="url(#paint3_linear_676_3545)"/>
<path d="M185.962 67.7109L188.835 65.8095L199.422 58.845L221.871 50.4706L194.604 75.4445L191.968 77.8585L142.686 122.978H102.132L185.962 67.7109Z" fill="url(#paint4_linear_676_3545)"/>
</g>
<defs>
<linearGradient id="paint0_linear_676_3545" x1="197.99" y1="136.931" x2="-1.94651" y2="112.117" gradientUnits="userSpaceOnUse">
<stop stop-color="#DED6FF"/>
<stop offset="0.75" stop-color="#DED6FF" stop-opacity="0.2"/>
</linearGradient>
<linearGradient id="paint1_linear_676_3545" x1="-30.2156" y1="0.192267" x2="81.554" y2="133.974" gradientUnits="userSpaceOnUse">
<stop offset="0.3" stop-color="#DED6FF" stop-opacity="0.2"/>
<stop offset="1" stop-color="#DED6FF"/>
</linearGradient>
<linearGradient id="paint2_linear_676_3545" x1="220.216" y1="245.829" x2="108.446" y2="112.047" gradientUnits="userSpaceOnUse">
<stop offset="0.3" stop-color="#DED6FF" stop-opacity="0.2"/>
<stop offset="1" stop-color="#DED6FF"/>
</linearGradient>
<linearGradient id="paint3_linear_676_3545" x1="-20.0097" y1="207.14" x2="74.2305" y2="110.988" gradientUnits="userSpaceOnUse">
<stop stop-color="#DED6FF"/>
<stop offset="1" stop-color="#DED6FF" stop-opacity="0.2"/>
</linearGradient>
<linearGradient id="paint4_linear_676_3545" x1="210.268" y1="38.9984" x2="114.844" y2="135.526" gradientUnits="userSpaceOnUse">
<stop stop-color="#DED6FF"/>
<stop offset="1" stop-color="#DED6FF" stop-opacity="0.2"/>
</linearGradient>
<clipPath id="clip0_676_3545">
<rect width="250" height="246" fill="white" transform="matrix(-1 0 0 1 220 0)"/>
</clipPath>
</defs>
</svg>
