<svg width="16" height="16" viewBox="0 0 16 16" fill="none" xmlns="http://www.w3.org/2000/svg">
<path d="M1.81668 14C1.69445 14 1.58334 13.9696 1.48334 13.9087C1.38334 13.8478 1.30557 13.7671 1.25001 13.6667C1.19446 13.5662 1.16401 13.4578 1.15868 13.3413C1.15334 13.2249 1.18379 13.1111 1.25001 13L7.41668 2.33333C7.48334 2.22222 7.56957 2.13889 7.67534 2.08333C7.78112 2.02778 7.88934 2 8.00001 2C8.11068 2 8.21912 2.02778 8.32534 2.08333C8.43157 2.13889 8.51757 2.22222 8.58334 2.33333L14.75 13C14.8167 13.1111 14.8473 13.2251 14.842 13.342C14.8367 13.4589 14.806 13.5671 14.75 13.6667C14.694 13.7662 14.6162 13.8469 14.5167 13.9087C14.4171 13.9704 14.306 14.0009 14.1833 14H1.81668ZM2.96668 12.6667H13.0333L8.00001 4L2.96668 12.6667ZM8.00001 12C8.1889 12 8.34734 11.936 8.47534 11.808C8.60334 11.68 8.66712 11.5218 8.66668 11.3333C8.66623 11.1449 8.60223 10.9867 8.47468 10.8587C8.34712 10.7307 8.1889 10.6667 8.00001 10.6667C7.81112 10.6667 7.6529 10.7307 7.52534 10.8587C7.39779 10.9867 7.33379 11.1449 7.33334 11.3333C7.3329 11.5218 7.3969 11.6802 7.52534 11.8087C7.65379 11.9371 7.81201 12.0009 8.00001 12ZM8.00001 10C8.1889 10 8.34734 9.936 8.47534 9.808C8.60334 9.68 8.66712 9.52178 8.66668 9.33333V7.33333C8.66668 7.14444 8.60268 6.98622 8.47468 6.85867C8.34668 6.73111 8.18845 6.66711 8.00001 6.66667C7.81157 6.66622 7.65334 6.73022 7.52534 6.85867C7.39734 6.98711 7.33334 7.14533 7.33334 7.33333V9.33333C7.33334 9.52222 7.39734 9.68067 7.52534 9.80867C7.65334 9.93667 7.81157 10.0004 8.00001 10Z" fill="#111111" fill-opacity="0.6"/>
</svg>
