<svg width="16" height="16" viewBox="0 0 16 16" fill="none" xmlns="http://www.w3.org/2000/svg">
<path d="M9.63328 7.99999L4.73328 12.9C4.56662 13.0667 4.48595 13.2611 4.49128 13.4833C4.49662 13.7055 4.58284 13.9 4.74995 14.0667C4.91706 14.2333 5.11151 14.3167 5.33328 14.3167C5.55506 14.3167 5.74951 14.2333 5.91662 14.0667L11.05 8.94999C11.1833 8.81666 11.2833 8.66666 11.35 8.49999C11.4166 8.33332 11.45 8.16666 11.45 7.99999C11.45 7.83332 11.4166 7.66666 11.35 7.49999C11.2833 7.33332 11.1833 7.18332 11.05 7.04999L5.91662 1.91666C5.74995 1.74999 5.55262 1.66932 5.32462 1.67466C5.09662 1.67999 4.89951 1.76621 4.73328 1.93332C4.56706 2.10043 4.48373 2.29488 4.48328 2.51666C4.48284 2.73843 4.56617 2.93288 4.73328 3.09999L9.63328 7.99999Z" fill="#A6A6A6"/>
</svg>
