<svg width="16" height="16" viewBox="0 0 16 16" fill="none" xmlns="http://www.w3.org/2000/svg">
<path d="M7.03644 13.4655C7.1498 13.6433 7.2915 13.7764 7.46154 13.8649C7.63158 13.9533 7.81107 13.9984 8 14C8.18894 14.0015 8.36842 13.9569 8.53846 13.866C8.7085 13.7752 8.8502 13.6421 8.96356 13.4667L14.83 3.80841C14.8866 3.70965 14.929 3.60576 14.9569 3.49674C14.9849 3.38771 14.9992 3.28382 15 3.18506C15 2.86905 14.8912 2.59253 14.6735 2.35552C14.4559 2.11851 14.1868 2 13.8664 2H2.13361C1.81242 2 1.543 2.11851 1.32535 2.35552C1.10769 2.59253 0.999249 2.86905 1 3.18506C1 3.28382 1.01436 3.38731 1.04308 3.49555C1.0718 3.60379 1.11412 3.70768 1.17004 3.80722L7.03644 13.4655Z" fill="#5133FF"/>
</svg>
