<svg width="32" height="32" viewBox="0 0 32 32" fill="none" xmlns="http://www.w3.org/2000/svg">
<rect width="32" height="32" rx="16" fill="white" fill-opacity="0.2"/>
<path d="M9 22.65C8.71667 22.65 8.47934 22.5588 8.288 22.3764C8.09667 22.194 8.00067 21.9685 8 21.7C7.99934 21.4315 8.09534 21.206 8.288 21.0236C8.48067 20.8412 8.718 20.75 9 20.75H10V14.1C10 12.7858 10.4167 11.6183 11.25 10.5974C12.0833 9.57642 13.1667 8.9073 14.5 8.59V7.925C14.5 7.52917 14.646 7.19287 14.938 6.9161C15.23 6.63934 15.584 6.50064 16 6.5C16.416 6.49937 16.7703 6.63807 17.063 6.9161C17.3557 7.19414 17.5013 7.53044 17.5 7.925V8.59C18.8333 8.90667 19.9167 9.57579 20.75 10.5974C21.5833 11.6189 22 12.7865 22 14.1V20.75H23C23.2833 20.75 23.521 20.8412 23.713 21.0236C23.905 21.206 24.0007 21.4315 24 21.7C23.9993 21.9685 23.9033 22.1943 23.712 22.3773C23.5207 22.5604 23.2833 22.6513 23 22.65H9ZM16 25.5C15.45 25.5 14.9793 25.3141 14.588 24.9423C14.1967 24.5706 14.0007 24.1231 14 23.6H18C18 24.1225 17.8043 24.5699 17.413 24.9423C17.0217 25.3147 16.5507 25.5006 16 25.5ZM12 20.75H20V14.1C20 13.055 19.6083 12.1604 18.825 11.4163C18.0417 10.6721 17.1 10.3 16 10.3C14.9 10.3 13.9583 10.6721 13.175 11.4163C12.3917 12.1604 12 13.055 12 14.1V20.75Z" fill="white"/>
</svg>
