<svg width="100" height="75" viewBox="0 0 100 75" fill="none" xmlns="http://www.w3.org/2000/svg">
<g opacity="0.2" clip-path="url(#clip0_257_391)">
<path d="M51.4331 6.83716C64.941 6.83716 76.971 13.333 84.6022 23.3721L83.4441 24.145C76.0636 14.4794 64.4656 8.23533 51.4331 8.23533C29.1964 8.23533 11.0994 26.4203 11.0994 48.7651C11.0994 71.1098 29.1964 89.2948 51.4331 89.2948C73.6697 89.2948 91.7666 71.1098 91.7666 48.7564C91.7666 43.1116 90.6086 37.736 88.5258 32.8467L89.5974 31.848C91.879 37.0239 93.1494 42.7382 93.1494 48.7564C93.1494 71.8741 74.4302 90.6756 51.4331 90.6756C28.4359 90.6756 9.71668 71.8654 9.71668 48.7564C9.71668 25.6474 28.4273 6.83716 51.4331 6.83716Z" fill="url(#paint0_linear_257_391)"/>
<path d="M4.20887 8.26324L7.24792e-05 -2L50.0044 48.0043H33.7914L4.20887 8.26324Z" fill="url(#paint1_linear_257_391)"/>
<path d="M100 98L49.9957 47.9956H66.2086L95.7912 87.7367" fill="url(#paint2_linear_257_391)"/>
<path d="M8.23058 74.066L-0.757412 77.4703L30.9252 48.0044H47.1382L8.23058 74.0747V74.066Z" fill="url(#paint3_linear_257_391)"/>
<path d="M86.385 25.5247L87.5345 24.7518L91.7692 21.9207L100.749 18.5165L89.842 28.6685L88.7876 29.6498L69.0745 47.9911H52.8529L86.385 25.5247Z" fill="url(#paint4_linear_257_391)"/>
</g>
<defs>
<linearGradient id="paint0_linear_257_391" x1="91.1963" y1="53.663" x2="11.1831" y2="43.8915" gradientUnits="userSpaceOnUse">
<stop stop-color="#4E83F9"/>
<stop offset="0.75" stop-color="#4E83F9" stop-opacity="0"/>
</linearGradient>
<linearGradient id="paint1_linear_257_391" x1="-0.0863504" y1="-1.92184" x2="45.4732" y2="51.7378" gradientUnits="userSpaceOnUse">
<stop offset="0.3" stop-color="#4E83F9" stop-opacity="0.2"/>
<stop offset="1" stop-color="#4E83F9"/>
</linearGradient>
<linearGradient id="paint2_linear_257_391" x1="100.086" y1="97.9305" x2="54.5268" y2="44.2709" gradientUnits="userSpaceOnUse">
<stop offset="0.3" stop-color="#4E83F9" stop-opacity="0.2"/>
<stop offset="1" stop-color="#4E83F9"/>
</linearGradient>
<linearGradient id="paint3_linear_257_391" x1="3.99585" y1="82.2033" x2="42.3123" y2="43.7352" gradientUnits="userSpaceOnUse">
<stop stop-color="#4E83F9"/>
<stop offset="1" stop-color="#4E83F9" stop-opacity="0"/>
</linearGradient>
<linearGradient id="paint4_linear_257_391" x1="96.1076" y1="13.853" x2="57.3151" y2="52.4664" gradientUnits="userSpaceOnUse">
<stop stop-color="#4E83F9"/>
<stop offset="1" stop-color="#4E83F9" stop-opacity="0"/>
</linearGradient>
<clipPath id="clip0_257_391">
<rect width="100" height="100" fill="white" transform="matrix(-1 0 0 1 100 -2)"/>
</clipPath>
</defs>
</svg>
