<svg width="20" height="20" viewBox="0 0 20 20" fill="none" xmlns="http://www.w3.org/2000/svg">
<path d="M10.075 13.475C9.59167 13.4917 9.12933 13.4127 8.688 13.238C8.24667 13.0633 7.859 12.809 7.525 12.475C7.191 12.141 6.93667 11.766 6.762 11.35C6.58733 10.934 6.5 10.4923 6.5 10.025C6.5 9.85833 6.50833 9.696 6.525 9.538C6.54167 9.38 6.575 9.22567 6.625 9.075C6.69167 8.875 6.68767 8.675 6.613 8.475C6.53833 8.275 6.409 8.13333 6.225 8.05C6.025 7.96667 5.82933 7.96667 5.638 8.05C5.44667 8.13333 5.31733 8.275 5.25 8.475C5.16667 8.725 5.10433 8.975 5.063 9.225C5.02167 9.475 5.00067 9.73333 5 10C5 10.6667 5.12933 11.3043 5.388 11.913C5.64667 12.5217 6.009 13.059 6.475 13.525C6.925 13.9917 7.45433 14.35 8.063 14.6C8.67167 14.85 9.30067 14.9833 9.95 15L9.525 15.425C9.375 15.575 9.3 15.75 9.3 15.95C9.3 16.15 9.375 16.325 9.525 16.475C9.675 16.625 9.85 16.7 10.05 16.7C10.25 16.7 10.425 16.625 10.575 16.475L12.175 14.875C12.375 14.675 12.475 14.4417 12.475 14.175C12.475 13.9083 12.375 13.675 12.175 13.475L10.575 11.875C10.425 11.725 10.25 11.65 10.05 11.65C9.85 11.65 9.675 11.725 9.525 11.875C9.375 12.025 9.3 12.2 9.3 12.4C9.3 12.6 9.375 12.775 9.525 12.925L10.075 13.475ZM9.9 6.5C10.3833 6.5 10.85 6.58767 11.3 6.763C11.75 6.93833 12.1417 7.19233 12.475 7.525C12.8083 7.85767 13.0627 8.23267 13.238 8.65C13.4133 9.06733 13.5007 9.509 13.5 9.975C13.5 10.1417 13.4917 10.304 13.475 10.462C13.4583 10.62 13.425 10.7743 13.375 10.925C13.3083 11.125 13.3127 11.329 13.388 11.537C13.4633 11.745 13.5923 11.891 13.775 11.975C13.975 12.0583 14.171 12.0583 14.363 11.975C14.555 11.8917 14.684 11.75 14.75 11.55C14.8333 11.3 14.896 11.0457 14.938 10.787C14.98 10.5283 15.0007 10.266 15 10C15 9.33333 14.879 8.696 14.637 8.088C14.395 7.48 14.0327 6.934 13.55 6.45C13.0833 5.98333 12.546 5.62933 11.938 5.388C11.33 5.14667 10.7007 5.02567 10.05 5.025L10.5 4.575C10.6333 4.425 10.7 4.25 10.7 4.05C10.7 3.85 10.625 3.675 10.475 3.525C10.325 3.375 10.15 3.3 9.95 3.3C9.75 3.3 9.575 3.375 9.425 3.525L7.825 5.125C7.625 5.325 7.525 5.55833 7.525 5.825C7.525 6.09167 7.625 6.325 7.825 6.525L9.425 8.125C9.575 8.275 9.75 8.35 9.95 8.35C10.15 8.35 10.325 8.275 10.475 8.125C10.625 7.975 10.7 7.8 10.7 7.6C10.7 7.4 10.625 7.225 10.475 7.075L9.9 6.5ZM10 20C8.61667 20 7.31667 19.7373 6.1 19.212C4.88334 18.6867 3.825 17.9743 2.925 17.075C2.025 16.1757 1.31267 15.1173 0.788001 13.9C0.263335 12.6827 0.000667933 11.3827 1.26582e-06 10C-0.000665401 8.61733 0.262001 7.31733 0.788001 6.1C1.314 4.88267 2.02633 3.82433 2.925 2.925C3.82367 2.02567 4.882 1.31333 6.1 0.788C7.318 0.262667 8.618 0 10 0C11.382 0 12.682 0.262667 13.9 0.788C15.118 1.31333 16.1763 2.02567 17.075 2.925C17.9737 3.82433 18.6863 4.88267 19.213 6.1C19.7397 7.31733 20.002 8.61733 20 10C19.998 11.3827 19.7353 12.6827 19.212 13.9C18.6887 15.1173 17.9763 16.1757 17.075 17.075C16.1737 17.9743 15.1153 18.687 13.9 19.213C12.6847 19.739 11.3847 20.0013 10 20ZM10 18C12.2333 18 14.125 17.225 15.675 15.675C17.225 14.125 18 12.2333 18 10C18 7.76667 17.225 5.875 15.675 4.325C14.125 2.775 12.2333 2 10 2C7.76667 2 5.875 2.775 4.325 4.325C2.775 5.875 2 7.76667 2 10C2 12.2333 2.775 14.125 4.325 15.675C5.875 17.225 7.76667 18 10 18Z" fill="#111111"/>
</svg>
