<svg width="14" height="14" viewBox="0 0 14 14" fill="none" xmlns="http://www.w3.org/2000/svg">
<path d="M1.5897 12.25C1.48276 12.25 1.38553 12.2234 1.29803 12.1701C1.21053 12.1168 1.14248 12.0462 1.09387 11.9583C1.04526 11.8704 1.01862 11.7756 1.01395 11.6737C1.00928 11.5718 1.03592 11.4722 1.09387 11.375L6.4897 2.04167C6.54803 1.94444 6.62348 1.87153 6.71603 1.82292C6.80859 1.77431 6.90328 1.75 7.00012 1.75C7.09695 1.75 7.19184 1.77431 7.28478 1.82292C7.37773 1.87153 7.45298 1.94444 7.51053 2.04167L12.9064 11.375C12.9647 11.4722 12.9915 11.572 12.9869 11.6743C12.9822 11.7765 12.9554 11.8712 12.9064 11.9583C12.8574 12.0454 12.7893 12.116 12.7022 12.1701C12.6151 12.2241 12.5179 12.2508 12.4105 12.25H1.5897ZM2.59595 11.0833H11.4043L7.00012 3.5L2.59595 11.0833ZM7.00012 10.5C7.1654 10.5 7.30403 10.444 7.41603 10.332C7.52803 10.22 7.58384 10.0816 7.58345 9.91667C7.58306 9.75178 7.52706 9.61333 7.41545 9.50133C7.30384 9.38933 7.1654 9.33333 7.00012 9.33333C6.83484 9.33333 6.6964 9.38933 6.58478 9.50133C6.47317 9.61333 6.41717 9.75178 6.41678 9.91667C6.4164 10.0816 6.4724 10.2202 6.58478 10.3326C6.69717 10.445 6.83562 10.5008 7.00012 10.5ZM7.00012 8.75C7.1654 8.75 7.30403 8.694 7.41603 8.582C7.52803 8.47 7.58384 8.33156 7.58345 8.16667V6.41667C7.58345 6.25139 7.52745 6.11294 7.41545 6.00133C7.30345 5.88972 7.16501 5.83372 7.00012 5.83333C6.83523 5.83294 6.69678 5.88894 6.58478 6.00133C6.47278 6.11372 6.41678 6.25217 6.41678 6.41667V8.16667C6.41678 8.33194 6.47278 8.47058 6.58478 8.58258C6.69678 8.69458 6.83523 8.75039 7.00012 8.75Z" fill="#111111" fill-opacity="0.4"/>
</svg>
