<svg width="96" height="96" viewBox="0 0 96 96" fill="none" xmlns="http://www.w3.org/2000/svg">
<rect width="96" height="96" rx="16" fill="#4E83F9"/>
<g clip-path="url(#clip0_3027_192)">
<path d="M48.9935 19.4375C58.359 19.4375 66.6999 23.9249 71.9908 30.86L71.1879 31.394C66.0707 24.7168 58.0295 20.4034 48.9935 20.4034C33.5761 20.4034 21.0289 32.9658 21.0289 48.4018C21.0289 63.8378 33.5761 76.4003 48.9935 76.4003C64.4109 76.4003 76.9582 63.8378 76.9582 48.3958C76.9582 44.4963 76.1552 40.7828 74.7112 37.4052L75.4542 36.7153C77.036 40.2908 77.9169 44.2383 77.9169 48.3958C77.9169 64.3658 64.9382 77.3541 48.9935 77.3541C33.0488 77.3541 20.0702 64.3598 20.0702 48.3958C20.0702 32.4318 33.0428 19.4375 48.9935 19.4375Z" fill="url(#paint0_linear_3027_192)"/>
<path d="M16.2516 20.424L13.3335 13.334L48.0032 47.8776H36.7622L16.2516 20.424Z" fill="url(#paint1_linear_3027_192)"/>
<path d="M82.6666 82.4127L47.997 47.8691H59.2379L79.7485 75.3228" fill="url(#paint2_linear_3027_192)"/>
<path d="M19.04 65.8807L12.8084 68.2324L34.775 47.877H46.016L19.04 65.8867V65.8807Z" fill="url(#paint3_linear_3027_192)"/>
<path d="M73.2267 32.3472L74.0237 31.8133L76.9597 29.8576L83.1854 27.5059L75.6235 34.519L74.8925 35.1969L61.2248 47.8673H49.9778L73.2267 32.3472Z" fill="url(#paint4_linear_3027_192)"/>
</g>
<defs>
<linearGradient id="paint0_linear_3027_192" x1="76.5627" y1="51.7854" x2="21.0928" y2="44.9865" gradientUnits="userSpaceOnUse">
<stop stop-color="white"/>
<stop offset="0.75" stop-color="white" stop-opacity="0"/>
</linearGradient>
<linearGradient id="paint1_linear_3027_192" x1="13.2736" y1="13.388" x2="44.7279" y2="50.5698" gradientUnits="userSpaceOnUse">
<stop offset="0.3" stop-color="white" stop-opacity="0.2"/>
<stop offset="1" stop-color="white"/>
</linearGradient>
<linearGradient id="paint2_linear_3027_192" x1="82.7265" y1="82.3648" x2="51.2722" y2="45.183" gradientUnits="userSpaceOnUse">
<stop offset="0.3" stop-color="white" stop-opacity="0.2"/>
<stop offset="1" stop-color="white"/>
</linearGradient>
<linearGradient id="paint3_linear_3027_192" x1="16.104" y1="71.5019" x2="42.5729" y2="44.8313" gradientUnits="userSpaceOnUse">
<stop stop-color="white"/>
<stop offset="1" stop-color="white" stop-opacity="0"/>
</linearGradient>
<linearGradient id="paint4_linear_3027_192" x1="79.9677" y1="24.2843" x2="53.1691" y2="51.0565" gradientUnits="userSpaceOnUse">
<stop stop-color="white"/>
<stop offset="1" stop-color="white" stop-opacity="0"/>
</linearGradient>
<clipPath id="clip0_3027_192">
<rect width="69.3333" height="69.0812" fill="white" transform="matrix(-1 0 0 1 82.6666 13.334)"/>
</clipPath>
</defs>
</svg>
