<svg width="180" height="180" viewBox="0 0 180 180" fill="none" xmlns="http://www.w3.org/2000/svg">
<rect width="180" height="180" fill="#4E83F9"/>
<g clip-path="url(#clip0_3027_192)">
<path d="M91.8628 36.4453C109.423 36.4453 125.062 44.8592 134.983 57.8626L133.477 58.8637C123.883 46.3441 108.805 38.2563 91.8628 38.2563C62.9552 38.2563 39.4292 61.8108 39.4292 90.7534C39.4292 119.696 62.9552 143.25 91.8628 143.25C120.77 143.25 144.297 119.696 144.297 90.7421C144.297 83.4306 142.791 76.4677 140.083 70.1348L141.477 68.8412C144.443 75.5453 146.094 82.9469 146.094 90.7421C146.094 120.686 121.759 145.039 91.8628 145.039C61.9665 145.039 37.6316 120.675 37.6316 90.7421C37.6316 60.8097 61.9553 36.4453 91.8628 36.4453Z" fill="url(#paint0_linear_3027_192)"/>
<path d="M30.4717 38.2937L25.0002 25L90.0059 89.7693H68.929L30.4717 38.2937Z" fill="url(#paint1_linear_3027_192)"/>
<path d="M155 154.525L89.9944 89.7559H111.071L149.529 141.231" fill="url(#paint2_linear_3027_192)"/>
<path d="M35.7 123.526L24.0156 127.936L65.2031 89.7695H86.2799L35.7 123.538V123.526Z" fill="url(#paint3_linear_3027_192)"/>
<path d="M137.3 60.6499L138.794 59.6487L144.3 55.9817L155.973 51.5723L141.794 64.7218L140.424 65.9929L114.797 89.7499H93.7085L137.3 60.6499Z" fill="url(#paint4_linear_3027_192)"/>
</g>
<defs>
<linearGradient id="paint0_linear_3027_192" x1="143.555" y1="97.0976" x2="39.549" y2="84.3496" gradientUnits="userSpaceOnUse">
<stop stop-color="white"/>
<stop offset="0.75" stop-color="white" stop-opacity="0"/>
</linearGradient>
<linearGradient id="paint1_linear_3027_192" x1="24.8879" y1="25.1012" x2="83.8647" y2="94.8171" gradientUnits="userSpaceOnUse">
<stop offset="0.3" stop-color="white" stop-opacity="0.2"/>
<stop offset="1" stop-color="white"/>
</linearGradient>
<linearGradient id="paint2_linear_3027_192" x1="155.112" y1="154.435" x2="96.1355" y2="84.7193" gradientUnits="userSpaceOnUse">
<stop offset="0.3" stop-color="white" stop-opacity="0.2"/>
<stop offset="1" stop-color="white"/>
</linearGradient>
<linearGradient id="paint3_linear_3027_192" x1="30.1949" y1="134.066" x2="79.824" y2="84.059" gradientUnits="userSpaceOnUse">
<stop stop-color="white"/>
<stop offset="1" stop-color="white" stop-opacity="0"/>
</linearGradient>
<linearGradient id="paint4_linear_3027_192" x1="149.94" y1="45.5318" x2="99.6922" y2="95.7297" gradientUnits="userSpaceOnUse">
<stop stop-color="white"/>
<stop offset="1" stop-color="white" stop-opacity="0"/>
</linearGradient>
<clipPath id="clip0_3027_192">
<rect width="130" height="129.527" fill="white" transform="matrix(-1 0 0 1 155 25)"/>
</clipPath>
</defs>
</svg>
