<svg width="32" height="32" viewBox="0 0 32 32" fill="none" xmlns="http://www.w3.org/2000/svg">
<path d="M16.0001 23.3333C17.6667 23.3333 19.0836 22.7502 20.2507 21.584C21.4179 20.4178 22.001 19.0009 22.0001 17.3333C21.9992 15.6658 21.4161 14.2493 20.2507 13.084C19.0854 11.9187 17.6685 11.3351 16.0001 11.3333C14.3316 11.3316 12.9152 11.9151 11.7507 13.084C10.5863 14.2529 10.0027 15.6693 10.0001 17.3333C9.99742 18.9973 10.581 20.4142 11.7507 21.584C12.9205 22.7538 14.337 23.3369 16.0001 23.3333ZM16.0001 20.6667C15.0667 20.6667 14.2779 20.3444 13.6334 19.7C12.989 19.0556 12.6667 18.2667 12.6667 17.3333C12.6667 16.4 12.989 15.6111 13.6334 14.9667C14.2779 14.3222 15.0667 14 16.0001 14C16.9334 14 17.7223 14.3222 18.3667 14.9667C19.0112 15.6111 19.3334 16.4 19.3334 17.3333C19.3334 18.2667 19.0112 19.0556 18.3667 19.7C17.7223 20.3444 16.9334 20.6667 16.0001 20.6667ZM5.33341 28C4.60008 28 3.97253 27.7391 3.45075 27.2173C2.92897 26.6956 2.66764 26.0676 2.66675 25.3333V9.33333C2.66675 8.6 2.92808 7.97244 3.45075 7.45067C3.97341 6.92889 4.60097 6.66756 5.33341 6.66667H9.53341L12.0001 4H20.0001L22.4667 6.66667H26.6667C27.4001 6.66667 28.0281 6.928 28.5507 7.45067C29.0734 7.97333 29.3343 8.60089 29.3334 9.33333V25.3333C29.3334 26.0667 29.0725 26.6947 28.5507 27.2173C28.029 27.74 27.401 28.0009 26.6667 28H5.33341ZM5.33341 25.3333H26.6667V9.33333H21.2667L18.8334 6.66667H13.1667L10.7334 9.33333H5.33341V25.3333Z" fill="#D6D6D6"/>
</svg>
