<svg width="16" height="16" viewBox="0 0 16 16" fill="none" xmlns="http://www.w3.org/2000/svg">
<path d="M8.00008 8.00008C7.26675 8.00008 6.63897 7.73897 6.11675 7.21675C5.59453 6.69453 5.33341 6.06675 5.33341 5.33341C5.33341 4.60008 5.59453 3.9723 6.11675 3.45008C6.63897 2.92786 7.26675 2.66675 8.00008 2.66675C8.73342 2.66675 9.36119 2.92786 9.88341 3.45008C10.4056 3.9723 10.6667 4.60008 10.6667 5.33341C10.6667 6.06675 10.4056 6.69453 9.88341 7.21675C9.36119 7.73897 8.73342 8.00008 8.00008 8.00008ZM2.66675 12.0001V11.4667C2.66675 11.089 2.76408 10.7419 2.95875 10.4254C3.15341 10.109 3.41164 9.86719 3.73341 9.70008C4.4223 9.35564 5.1223 9.09741 5.83341 8.92541C6.54453 8.75341 7.26675 8.66719 8.00008 8.66675C8.73342 8.6663 9.45564 8.75253 10.1667 8.92541C10.8779 9.0983 11.5779 9.35653 12.2667 9.70008C12.589 9.86675 12.8474 10.1085 13.0421 10.4254C13.2367 10.7423 13.3339 11.0894 13.3334 11.4667V12.0001C13.3334 12.3667 13.203 12.6807 12.9421 12.9421C12.6812 13.2034 12.3672 13.3339 12.0001 13.3334H4.00008C3.63341 13.3334 3.31964 13.203 3.05875 12.9421C2.79786 12.6812 2.66719 12.3672 2.66675 12.0001Z" fill="#111111" fill-opacity="0.8"/>
</svg>
