<svg width="16" height="16" viewBox="0 0 16 16" fill="none" xmlns="http://www.w3.org/2000/svg">
<path d="M3.99992 12L2.46659 13.5334C2.25548 13.7445 2.0137 13.7918 1.74125 13.6754C1.46881 13.5589 1.33281 13.3505 1.33325 13.05V2.66671C1.33325 2.30004 1.46392 1.98626 1.72525 1.72537C1.98659 1.46449 2.30036 1.33382 2.66659 1.33337H13.3333C13.6999 1.33337 14.0139 1.46404 14.2753 1.72537C14.5366 1.98671 14.667 2.30049 14.6666 2.66671V10.6667C14.6666 11.0334 14.5361 11.3474 14.2753 11.6087C14.0144 11.87 13.7004 12.0005 13.3333 12H3.99992ZM3.43325 10.6667H13.3333V2.66671H2.66659V11.4167L3.43325 10.6667ZM4.66659 9.33337H8.66659C8.85548 9.33337 9.01392 9.26937 9.14192 9.14137C9.26992 9.01337 9.3337 8.85515 9.33325 8.66671C9.33281 8.47826 9.26881 8.32004 9.14125 8.19204C9.0137 8.06404 8.85548 8.00004 8.66659 8.00004H4.66659C4.4777 8.00004 4.31948 8.06404 4.19192 8.19204C4.06436 8.32004 4.00036 8.47826 3.99992 8.66671C3.99948 8.85515 4.06348 9.0136 4.19192 9.14204C4.32036 9.27049 4.47859 9.33426 4.66659 9.33337ZM4.66659 7.33337H11.3333C11.5221 7.33337 11.6806 7.26937 11.8086 7.14137C11.9366 7.01337 12.0004 6.85515 11.9999 6.66671C11.9995 6.47826 11.9355 6.32004 11.8079 6.19204C11.6804 6.06404 11.5221 6.00004 11.3333 6.00004H4.66659C4.4777 6.00004 4.31948 6.06404 4.19192 6.19204C4.06436 6.32004 4.00036 6.47826 3.99992 6.66671C3.99948 6.85515 4.06348 7.0136 4.19192 7.14204C4.32036 7.27049 4.47859 7.33426 4.66659 7.33337ZM4.66659 5.33337H11.3333C11.5221 5.33337 11.6806 5.26937 11.8086 5.14137C11.9366 5.01337 12.0004 4.85515 11.9999 4.66671C11.9995 4.47826 11.9355 4.32004 11.8079 4.19204C11.6804 4.06404 11.5221 4.00004 11.3333 4.00004H4.66659C4.4777 4.00004 4.31948 4.06404 4.19192 4.19204C4.06436 4.32004 4.00036 4.47826 3.99992 4.66671C3.99948 4.85515 4.06348 5.0136 4.19192 5.14204C4.32036 5.27049 4.47859 5.33426 4.66659 5.33337Z" fill="#111111" fill-opacity="0.4"/>
</svg>
