<svg width="16" height="16" viewBox="0 0 16 16" fill="none" xmlns="http://www.w3.org/2000/svg">
<path d="M9.63328 7.9999L4.73328 12.8999C4.56662 13.0666 4.48595 13.261 4.49128 13.4832C4.49662 13.7055 4.58284 13.8999 4.74995 14.0666C4.91706 14.2332 5.11151 14.3166 5.33328 14.3166C5.55506 14.3166 5.74951 14.2332 5.91662 14.0666L11.05 8.9499C11.1833 8.81656 11.2833 8.66656 11.35 8.4999C11.4166 8.33323 11.45 8.16656 11.45 7.9999C11.45 7.83323 11.4166 7.66656 11.35 7.4999C11.2833 7.33323 11.1833 7.18323 11.05 7.0499L5.91662 1.91656C5.74995 1.7499 5.55262 1.66923 5.32462 1.67456C5.09662 1.6799 4.89951 1.76612 4.73328 1.93323C4.56706 2.10034 4.48373 2.29479 4.48328 2.51656C4.48284 2.73834 4.56617 2.93279 4.73328 3.0999L9.63328 7.9999Z" fill="#DBEBFE"/>
</svg>
