<svg width="24" height="24" viewBox="0 0 24 24" fill="none" xmlns="http://www.w3.org/2000/svg">
<path d="M7 21C6.45 21 5.97934 20.8043 5.588 20.413C5.19667 20.0217 5.00067 19.5507 5 19V6C4.71667 6 4.47934 5.904 4.288 5.712C4.09667 5.52 4.00067 5.28267 4 5C3.99934 4.71733 4.09534 4.48 4.288 4.288C4.48067 4.096 4.718 4 5 4H9C9 3.71667 9.096 3.47933 9.288 3.288C9.48 3.09667 9.71734 3.00067 10 3H14C14.2833 3 14.521 3.096 14.713 3.288C14.905 3.48 15.0007 3.71733 15 4H19C19.2833 4 19.521 4.096 19.713 4.288C19.905 4.48 20.0007 4.71733 20 5C19.9993 5.28267 19.9033 5.52033 19.712 5.713C19.5207 5.90567 19.2833 6.00133 19 6V19C19 19.55 18.8043 20.021 18.413 20.413C18.0217 20.805 17.5507 21.0007 17 21H7ZM12 13.9L13.9 15.8C14.0833 15.9833 14.3167 16.075 14.6 16.075C14.8833 16.075 15.1167 15.9833 15.3 15.8C15.4833 15.6167 15.575 15.3833 15.575 15.1C15.575 14.8167 15.4833 14.5833 15.3 14.4L13.4 12.5L15.3 10.6C15.4833 10.4167 15.575 10.1833 15.575 9.9C15.575 9.61667 15.4833 9.38333 15.3 9.2C15.1167 9.01667 14.8833 8.925 14.6 8.925C14.3167 8.925 14.0833 9.01667 13.9 9.2L12 11.1L10.1 9.2C9.91667 9.01667 9.68334 8.925 9.4 8.925C9.11667 8.925 8.88334 9.01667 8.7 9.2C8.51667 9.38333 8.425 9.61667 8.425 9.9C8.425 10.1833 8.51667 10.4167 8.7 10.6L10.6 12.5L8.7 14.4C8.51667 14.5833 8.425 14.8167 8.425 15.1C8.425 15.3833 8.51667 15.6167 8.7 15.8C8.88334 15.9833 9.11667 16.075 9.4 16.075C9.68334 16.075 9.91667 15.9833 10.1 15.8L12 13.9Z" fill="#111111" fill-opacity="0.8"/>
</svg>
