<svg width="16" height="16" viewBox="0 0 16 16" fill="none" xmlns="http://www.w3.org/2000/svg">
<path d="M7.99992 13.5501C7.84436 13.5501 7.68614 13.5223 7.52525 13.4667C7.36436 13.4112 7.22258 13.3223 7.09992 13.2001L5.94992 12.1501C4.77214 11.0723 3.70814 10.0029 2.75792 8.94206C1.8077 7.88117 1.33281 6.71161 1.33325 5.43339C1.33325 4.38895 1.68325 3.51672 2.38325 2.81672C3.08325 2.11672 3.95547 1.76672 4.99992 1.76672C5.58881 1.76672 6.14436 1.89161 6.66658 2.14139C7.18881 2.39117 7.63325 2.73295 7.99992 3.16672C8.36658 2.73339 8.81103 2.39183 9.33325 2.14206C9.85547 1.89228 10.411 1.76717 10.9999 1.76672C12.0444 1.76672 12.9166 2.11672 13.6166 2.81672C14.3166 3.51672 14.6666 4.38895 14.6666 5.43339C14.6666 6.71117 14.1944 7.88339 13.2499 8.95006C12.3055 10.0167 11.2333 11.0889 10.0333 12.1667L8.89992 13.2001C8.7777 13.3223 8.63614 13.4112 8.47525 13.4667C8.31436 13.5223 8.15592 13.5501 7.99992 13.5501ZM7.36659 4.50006C7.04436 4.0445 6.69992 3.69717 6.33325 3.45806C5.96659 3.21895 5.52214 3.09961 4.99992 3.10006C4.33325 3.10006 3.7777 3.32228 3.33325 3.76672C2.88881 4.21117 2.66659 4.76672 2.66659 5.43339C2.66659 6.01117 2.87214 6.62517 3.28325 7.27539C3.69436 7.92561 4.18614 8.55606 4.75859 9.16672C5.33103 9.77739 5.91992 10.3496 6.52525 10.8834C7.13059 11.4172 7.62214 11.8561 7.99992 12.2001C8.3777 11.8556 8.86947 11.4167 9.47525 10.8834C10.081 10.3501 10.6699 9.77783 11.2419 9.16672C11.8139 8.55561 12.3055 7.92517 12.7166 7.27539C13.1277 6.62561 13.3333 6.01161 13.3333 5.43339C13.3333 4.76672 13.111 4.21117 12.6666 3.76672C12.2221 3.32228 11.6666 3.10006 10.9999 3.10006C10.4777 3.10006 10.0333 3.21961 9.66658 3.45872C9.29992 3.69783 8.95547 4.04495 8.63325 4.50006C8.55547 4.61117 8.46103 4.6945 8.34992 4.75006C8.23881 4.80561 8.12214 4.83339 7.99992 4.83339C7.8777 4.83339 7.76103 4.80561 7.64992 4.75006C7.53881 4.6945 7.44436 4.61117 7.36659 4.50006Z" fill="#111111" fill-opacity="0.4"/>
</svg>
