<svg width="20" height="20" viewBox="0 0 20 20" fill="none" xmlns="http://www.w3.org/2000/svg">
<path d="M5.83325 17.5C5.37492 17.5 4.9827 17.3369 4.65659 17.0108C4.33048 16.6847 4.16714 16.2922 4.16659 15.8333V5C3.93048 5 3.7327 4.92 3.57325 4.76C3.41381 4.6 3.33381 4.40222 3.33325 4.16667C3.3327 3.93111 3.4127 3.73333 3.57325 3.57333C3.73381 3.41333 3.93159 3.33333 4.16659 3.33333H7.49992C7.49992 3.09722 7.57992 2.89944 7.73992 2.74C7.89992 2.58056 8.0977 2.50056 8.33325 2.5H11.6666C11.9027 2.5 12.1008 2.58 12.2608 2.74C12.4208 2.9 12.5005 3.09778 12.4999 3.33333H15.8333C16.0694 3.33333 16.2674 3.41333 16.4274 3.57333C16.5874 3.73333 16.6671 3.93111 16.6666 4.16667C16.666 4.40222 16.586 4.60028 16.4266 4.76083C16.2671 4.92139 16.0694 5.00111 15.8333 5V15.8333C15.8333 16.2917 15.6702 16.6842 15.3441 17.0108C15.018 17.3375 14.6255 17.5006 14.1666 17.5H5.83325ZM14.1666 5H5.83325V15.8333H14.1666V5ZM8.33325 14.1667C8.56937 14.1667 8.76742 14.0867 8.92742 13.9267C9.08742 13.7667 9.16714 13.5689 9.16659 13.3333V7.5C9.16659 7.26389 9.08659 7.06611 8.92659 6.90667C8.76659 6.74722 8.56881 6.66722 8.33325 6.66667C8.0977 6.66611 7.89992 6.74611 7.73992 6.90667C7.57992 7.06722 7.49992 7.265 7.49992 7.5V13.3333C7.49992 13.5694 7.57992 13.7675 7.73992 13.9275C7.89992 14.0875 8.0977 14.1672 8.33325 14.1667ZM11.6666 14.1667C11.9027 14.1667 12.1008 14.0867 12.2608 13.9267C12.4208 13.7667 12.5005 13.5689 12.4999 13.3333V7.5C12.4999 7.26389 12.4199 7.06611 12.2599 6.90667C12.0999 6.74722 11.9021 6.66722 11.6666 6.66667C11.431 6.66611 11.2333 6.74611 11.0733 6.90667C10.9133 7.06722 10.8333 7.265 10.8333 7.5V13.3333C10.8333 13.5694 10.9133 13.7675 11.0733 13.9275C11.2333 14.0875 11.431 14.1672 11.6666 14.1667Z" fill="#D6D6D6"/>
</svg>
