<svg width="32" height="32" viewBox="0 0 32 32" fill="none" xmlns="http://www.w3.org/2000/svg">
<path d="M6.66667 28C5.93333 28 5.30578 27.7392 4.784 27.2174C4.26222 26.6956 4.00089 26.0676 4 25.3334V6.66672C4 5.93338 4.26133 5.30583 4.784 4.78405C5.30667 4.26227 5.93422 4.00094 6.66667 4.00005H15.3667C15.8111 4.00005 16.1444 4.13916 16.3667 4.41738C16.5889 4.6956 16.7 5.00094 16.7 5.33338C16.7 5.66583 16.5836 5.9716 16.3507 6.25072C16.1178 6.52983 15.7787 6.66849 15.3333 6.66672H6.66667V25.3334H25.3333V16.6334C25.3333 16.1889 25.4724 15.8556 25.7507 15.6334C26.0289 15.4112 26.3342 15.3 26.6667 15.3C26.9991 15.3 27.3049 15.4112 27.584 15.6334C27.8631 15.8556 28.0018 16.1889 28 16.6334V25.3334C28 26.0667 27.7391 26.6947 27.2173 27.2174C26.6956 27.74 26.0676 28.0009 25.3333 28H6.66667ZM12 18.6667V15.4334C12 15.0778 12.0667 14.7387 12.2 14.416C12.3333 14.0934 12.5222 13.8103 12.7667 13.5667L24.2333 2.10005C24.5 1.83338 24.8 1.63338 25.1333 1.50005C25.4667 1.36672 25.8 1.30005 26.1333 1.30005C26.4889 1.30005 26.828 1.36672 27.1507 1.50005C27.4733 1.63338 27.7676 1.83338 28.0333 2.10005L29.9 4.00005C30.1444 4.26672 30.3333 4.56138 30.4667 4.88405C30.6 5.20672 30.6667 5.53427 30.6667 5.86672C30.6667 6.19916 30.6058 6.52716 30.484 6.85072C30.3622 7.17427 30.1676 7.46849 29.9 7.73338L18.4333 19.2C18.1889 19.4445 17.9058 19.6392 17.584 19.784C17.2622 19.9289 16.9231 20.0009 16.5667 20H13.3333C12.9556 20 12.6391 19.872 12.384 19.616C12.1289 19.36 12.0009 19.0436 12 18.6667ZM14.6667 17.3334H16.5333L24.2667 9.60005L23.3333 8.66672L22.3667 7.73338L14.6667 15.4334V17.3334Z" fill="white"/>
</svg>
