<svg width="16" height="16" viewBox="0 0 16 16" fill="none" xmlns="http://www.w3.org/2000/svg">
<path d="M3.33333 14.6666C2.96667 14.6666 2.65289 14.5361 2.392 14.2753C2.13111 14.0144 2.00044 13.7004 2 13.3333V3.99992C2 3.63325 2.13067 3.31948 2.392 3.05859C2.65333 2.7977 2.96711 2.66703 3.33333 2.66659H4V1.99992C4 1.81103 4.064 1.65281 4.192 1.52525C4.32 1.3977 4.47822 1.3337 4.66667 1.33325C4.85511 1.33281 5.01356 1.39681 5.142 1.52525C5.27044 1.6537 5.33422 1.81192 5.33333 1.99992V2.66659H10.6667V1.99992C10.6667 1.81103 10.7307 1.65281 10.8587 1.52525C10.9867 1.3977 11.1449 1.3337 11.3333 1.33325C11.5218 1.33281 11.6802 1.39681 11.8087 1.52525C11.9371 1.6537 12.0009 1.81192 12 1.99992V2.66659H12.6667C13.0333 2.66659 13.3473 2.79725 13.6087 3.05859C13.87 3.31992 14.0004 3.6337 14 3.99992V13.3333C14 13.6999 13.8696 14.0139 13.6087 14.2753C13.3478 14.5366 13.0338 14.667 12.6667 14.6666H3.33333ZM3.33333 13.3333H12.6667V6.66659H3.33333V13.3333Z" fill="#111111" fill-opacity="0.8"/>
</svg>
