<svg width="20" height="20" viewBox="0 0 20 20" fill="none" xmlns="http://www.w3.org/2000/svg">
<path d="M9.16675 10.1666V11.8333C9.16675 12.0694 9.24675 12.2675 9.40675 12.4275C9.56675 12.5875 9.76453 12.6672 10.0001 12.6666C10.2356 12.6661 10.4337 12.5861 10.5942 12.4266C10.7548 12.2672 10.8345 12.0694 10.8334 11.8333V10.1666H12.5001C12.7362 10.1666 12.9342 10.0866 13.0942 9.92663C13.2542 9.76663 13.334 9.56885 13.3334 9.33329C13.3329 9.09774 13.2529 8.89996 13.0934 8.73996C12.934 8.57996 12.7362 8.49996 12.5001 8.49996H10.8334V6.83329C10.8334 6.59718 10.7534 6.3994 10.5934 6.23996C10.4334 6.08051 10.2356 6.00051 10.0001 5.99996C9.76453 5.9994 9.56675 6.0794 9.40675 6.23996C9.24675 6.40051 9.16675 6.59829 9.16675 6.83329V8.49996H7.50008C7.26397 8.49996 7.06619 8.57996 6.90675 8.73996C6.7473 8.89996 6.6673 9.09774 6.66675 9.33329C6.66619 9.56885 6.74619 9.7669 6.90675 9.92746C7.0673 10.088 7.26508 10.1677 7.50008 10.1666H9.16675ZM5.00008 16L3.08342 17.9166C2.81953 18.1805 2.5173 18.2397 2.17675 18.0941C1.83619 17.9486 1.66619 17.688 1.66675 17.3125V4.33329C1.66675 3.87496 1.83008 3.48274 2.15675 3.15663C2.48342 2.83051 2.87564 2.66718 3.33342 2.66663H16.6667C17.1251 2.66663 17.5176 2.82996 17.8442 3.15663C18.1709 3.48329 18.334 3.87551 18.3334 4.33329V14.3333C18.3334 14.7916 18.1704 15.1841 17.8442 15.5108C17.5181 15.8375 17.1256 16.0005 16.6667 16H5.00008ZM4.29175 14.3333H16.6667V4.33329H3.33342V15.2708L4.29175 14.3333Z" fill="#D6D6D6"/>
</svg>
