<svg width="375" height="136" viewBox="0 0 375 136" fill="none" xmlns="http://www.w3.org/2000/svg">
<path d="M375 4.1406V135.684H0V18.5004C4.1968 12.8691 33.8344 -20.3426 124.571 18.8198H124.578C144.268 27.3141 165.999 22.6148 186.316 17.4945C190.525 16.4299 194.677 15.355 198.733 14.3703C210.305 11.5654 225.633 7.69061 238.401 8.95218C250.831 10.1868 261.009 18.032 273.138 20.9917C281.71 23.0832 291.178 23.7539 300.057 23.871C327.021 24.2223 353.007 16.8184 375 4.1406Z" fill="#4E83F9" fill-opacity="0.04"/>
<path d="M375 17.7175V135.684H0V25.7068C3.21748 23.0935 20.7077 11.0276 53.806 26.1752C64.7517 31.1837 78.7423 32.216 90.9863 31.3807C106.116 30.3533 112.883 25.1747 124.571 18.8199H124.578C139.265 10.8414 158.924 9.42605 175.531 13.5772C179.356 14.535 182.92 15.8872 186.316 17.4947C196.903 22.4714 205.949 29.8056 216.645 34.8136C228.447 40.3331 240.826 43.6543 253.352 44.9316C271.949 46.8369 290.871 44.2608 308.719 37.7625C312.858 36.2511 316.946 34.5319 320.95 32.6104C320.95 32.6104 355.719 18.085 375 17.7175Z" fill="#4E83F9" fill-opacity="0.06"/>
<path d="M375 59.4775V135.684H0V39.976C6.1029 43.6857 15.5575 47.5978 17.1569 48.1298C26.2217 51.1634 36.0538 52.159 45.7711 51.5892C67.9627 50.2801 82.2795 39.5022 102.654 34.8233C129.964 28.5484 160.12 36.0687 180.93 51.7538C180.93 51.7538 181.787 52.398 183.38 53.3348C189.925 57.188 208.943 65.9808 232.324 55.2719C234.5 54.2764 236.719 53.1108 238.964 51.7538C238.964 51.7538 244.46 48.459 253.351 44.9305C266.6 39.6722 287.391 33.892 308.718 37.7615C318.429 39.5124 328.255 43.2756 337.531 49.9925C337.531 49.9925 354.35 62.5592 375 59.4775Z" fill="#4E83F9" fill-opacity="0.08"/>
<path d="M375 67.6856V135.685H0V74.5147C4.7085 70.4429 10.7919 66.962 14.6878 65.2056C39.8666 53.8368 70.2021 61.5649 95.1319 69.2828C109.462 73.7161 125.512 73.3972 140.206 70.4327C149.072 68.6445 156.813 65.02 164.534 61.1133C170.765 57.9626 177.009 55.2749 183.38 53.3372C194.741 49.867 206.512 48.7706 219.338 51.6234C223.778 52.6136 228.089 53.8536 232.324 55.2743C247.326 60.3093 261.265 67.5583 275.806 73.3864C288.561 78.5067 305.367 80.1568 319.313 80.2204C328.537 80.2631 337.768 79.369 346.693 77.4102C350.269 76.6273 372.198 71.337 375 67.6856Z" fill="#4E83F9" fill-opacity="0.1"/>
</svg>
