<svg width="24" height="24" viewBox="0 0 24 24" fill="none" xmlns="http://www.w3.org/2000/svg">
<path d="M11.4961 10.5646L7.23264 14.7847C7.08762 14.9282 6.91844 14.9977 6.72508 14.9931C6.53173 14.9885 6.36254 14.9143 6.21753 14.7703C6.07251 14.6264 6 14.4589 6 14.2679C6 14.0769 6.07251 13.9095 6.21753 13.7655L10.6695 9.3445C10.7855 9.22967 10.9161 9.14354 11.0611 9.08612C11.2061 9.02871 11.3511 9 11.4961 9C11.6411 9 11.7862 9.02871 11.9312 9.08612C12.0762 9.14354 12.2067 9.22967 12.3227 9.3445L16.7892 13.7655C16.9342 13.9091 17.0044 14.079 16.9998 14.2754C16.9951 14.4718 16.9201 14.6415 16.7747 14.7847C16.6293 14.9278 16.4601 14.9996 16.2672 15C16.0742 15.0004 15.905 14.9286 15.7596 14.7847L11.4961 10.5646Z" fill="#5D5D5D"/>
</svg>
