<svg width="16" height="16" viewBox="0 0 16 16" fill="none" xmlns="http://www.w3.org/2000/svg">
<path d="M9.63353 7.99998L4.73353 3.09998C4.56686 2.93331 4.48619 2.73887 4.49153 2.51665C4.49686 2.29442 4.58308 2.09998 4.7502 1.93331C4.91731 1.76665 5.11175 1.68331 5.33353 1.68331C5.55531 1.68331 5.74975 1.76665 5.91686 1.93331L11.0502 7.04998C11.1835 7.18331 11.2835 7.33331 11.3502 7.49998C11.4169 7.66665 11.4502 7.83331 11.4502 7.99998C11.4502 8.16665 11.4169 8.33331 11.3502 8.49998C11.2835 8.66665 11.1835 8.81665 11.0502 8.94998L5.91686 14.0833C5.7502 14.25 5.55286 14.3306 5.32486 14.3253C5.09686 14.32 4.89975 14.2338 4.73353 14.0666C4.56731 13.8995 4.48397 13.7051 4.48353 13.4833C4.48308 13.2615 4.56642 13.0671 4.73353 12.9L9.63353 7.99998Z" fill="#D6D6D6"/>
</svg>
