<svg width="16" height="16" viewBox="0 0 16 16" fill="none" xmlns="http://www.w3.org/2000/svg">
<path d="M8.0001 9.63328L3.1001 4.73328C2.93343 4.56662 2.73899 4.48595 2.51677 4.49128C2.29455 4.49662 2.1001 4.58284 1.93343 4.74995C1.76677 4.91706 1.68343 5.11151 1.68343 5.33328C1.68343 5.55506 1.76677 5.74951 1.93343 5.91662L7.0501 11.05C7.18344 11.1833 7.33344 11.2833 7.5001 11.35C7.66677 11.4166 7.83344 11.45 8.0001 11.45C8.16677 11.45 8.33344 11.4166 8.5001 11.35C8.66677 11.2833 8.81677 11.1833 8.9501 11.05L14.0834 5.91662C14.2501 5.74995 14.3308 5.55262 14.3254 5.32462C14.3201 5.09662 14.2339 4.89951 14.0668 4.73328C13.8997 4.56706 13.7052 4.48373 13.4834 4.48328C13.2617 4.48284 13.0672 4.56617 12.9001 4.73328L8.0001 9.63328Z" fill="#4E83F9"/>
</svg>
