<svg width="24" height="24" viewBox="0 0 24 24" fill="none" xmlns="http://www.w3.org/2000/svg">
<path d="M11.75 22C10.0167 22 8.54167 21.3917 7.325 20.175C6.10833 18.9583 5.5 17.4833 5.5 15.75V6.5C5.5 5.25 5.93767 4.18767 6.813 3.313C7.68833 2.43833 8.75067 2.00067 10 2C11.2493 1.99933 12.312 2.437 13.188 3.313C14.064 4.189 14.5013 5.25133 14.5 6.5V13C14.5 13.2833 14.404 13.521 14.212 13.713C14.02 13.905 13.7827 14.0007 13.5 14C13.2173 13.9993 12.98 13.9033 12.788 13.712C12.596 13.5207 12.5 13.2833 12.5 13V6.5C12.4833 5.8 12.2377 5.20833 11.763 4.725C11.2883 4.24167 10.7007 4 10 4C9.29933 4 8.70767 4.24167 8.225 4.725C7.74233 5.20833 7.50067 5.8 7.5 6.5V15.75C7.48333 16.9333 7.89167 17.9377 8.725 18.763C9.55833 19.5883 10.5667 20.0007 11.75 20C12.0333 20 12.3 19.9707 12.55 19.912C12.8 19.8533 13.0417 19.7827 13.275 19.7C13.5417 19.6 13.8 19.6043 14.05 19.713C14.3 19.8217 14.475 20.009 14.575 20.275C14.675 20.541 14.671 20.7993 14.563 21.05C14.455 21.3007 14.2673 21.4757 14 21.575C13.65 21.7083 13.2877 21.8127 12.913 21.888C12.5383 21.9633 12.1507 22.0007 11.75 22ZM17 21C16.7167 21 16.4793 20.904 16.288 20.712C16.0967 20.52 16.0007 20.2827 16 20V18H14C13.7167 18 13.4793 17.904 13.288 17.712C13.0967 17.52 13.0007 17.2827 13 17C12.9993 16.7173 13.0953 16.48 13.288 16.288C13.4807 16.096 13.718 16 14 16H16V14C16 13.7167 16.096 13.4793 16.288 13.288C16.48 13.0967 16.7173 13.0007 17 13C17.2827 12.9993 17.5203 13.0953 17.713 13.288C17.9057 13.4807 18.0013 13.718 18 14V16H20C20.2833 16 20.521 16.096 20.713 16.288C20.905 16.48 21.0007 16.7173 21 17C20.9993 17.2827 20.9033 17.5203 20.712 17.713C20.5207 17.9057 20.2833 18.0013 20 18H18V20C18 20.2833 17.904 20.521 17.712 20.713C17.52 20.905 17.2827 21.0007 17 21ZM10 17C9.71667 17 9.47933 16.904 9.288 16.712C9.09667 16.52 9.00067 16.2827 9 16V7C9 6.71667 9.096 6.47933 9.288 6.288C9.48 6.09667 9.71733 6.00067 10 6C10.2827 5.99933 10.5203 6.09533 10.713 6.288C10.9057 6.48067 11.0013 6.718 11 7V16C11 16.2833 10.904 16.521 10.712 16.713C10.52 16.905 10.2827 17.0007 10 17ZM17 11C16.7167 11 16.4793 10.904 16.288 10.712C16.0967 10.52 16.0007 10.2827 16 10V7C16 6.71667 16.096 6.47933 16.288 6.288C16.48 6.09667 16.7173 6.00067 17 6C17.2827 5.99933 17.5203 6.09533 17.713 6.288C17.9057 6.48067 18.0013 6.718 18 7V10C18 10.2833 17.904 10.521 17.712 10.713C17.52 10.905 17.2827 11.0007 17 11Z" fill="#A6A6A6"/>
</svg>
