<svg width="20" height="20" viewBox="0 0 20 20" fill="none" xmlns="http://www.w3.org/2000/svg">
<path d="M3.33317 16.6667C2.87484 16.6667 2.48262 16.5037 2.1565 16.1775C1.83039 15.8514 1.66706 15.4589 1.6665 15V5.00004C1.6665 4.54171 1.82984 4.14948 2.1565 3.82337C2.48317 3.49726 2.87539 3.33393 3.33317 3.33337H7.64567C7.86789 3.33337 8.07984 3.37504 8.2815 3.45837C8.48317 3.54171 8.66011 3.65976 8.81234 3.81254L9.99984 5.00004H16.6665C17.1248 5.00004 17.5173 5.16337 17.844 5.49004C18.1707 5.81671 18.3337 6.20893 18.3332 6.66671V15C18.3332 15.4584 18.1701 15.8509 17.844 16.1775C17.5179 16.5042 17.1254 16.6673 16.6665 16.6667H3.33317ZM3.33317 15H16.6665V6.66671H9.31234L7.64567 5.00004H3.33317V15ZM11.6665 11.6667V12.5C11.6665 12.7362 11.7465 12.9342 11.9065 13.0942C12.0665 13.2542 12.2643 13.3339 12.4998 13.3334C12.7354 13.3328 12.9334 13.2528 13.094 13.0934C13.2546 12.9339 13.3343 12.7362 13.3332 12.5V11.6667H14.1665C14.4026 11.6667 14.6007 11.5867 14.7607 11.4267C14.9207 11.2667 15.0004 11.0689 14.9998 10.8334C14.9993 10.5978 14.9193 10.4 14.7598 10.24C14.6004 10.08 14.4026 10 14.1665 10H13.3332V9.16671C13.3332 8.9306 13.2532 8.73282 13.0932 8.57337C12.9332 8.41393 12.7354 8.33393 12.4998 8.33337C12.2643 8.33282 12.0665 8.41282 11.9065 8.57337C11.7465 8.73393 11.6665 8.93171 11.6665 9.16671V10H10.8332C10.5971 10 10.3993 10.08 10.2398 10.24C10.0804 10.4 10.0004 10.5978 9.99984 10.8334C9.99928 11.0689 10.0793 11.267 10.2398 11.4275C10.4004 11.5881 10.5982 11.6678 10.8332 11.6667H11.6665Z" fill="#A6A6A6"/>
</svg>
