<svg width="20" height="20" viewBox="0 0 20 20" fill="none" xmlns="http://www.w3.org/2000/svg">
<path d="M3.33317 15V5.00004V9.41671V9.16671V15ZM3.33317 16.6667C2.87484 16.6667 2.48262 16.5037 2.1565 16.1775C1.83039 15.8514 1.66706 15.4589 1.6665 15V5.00004C1.6665 4.54171 1.82984 4.14948 2.1565 3.82337C2.48317 3.49726 2.87539 3.33393 3.33317 3.33337H7.64567C7.86789 3.33337 8.07984 3.37504 8.2815 3.45837C8.48317 3.54171 8.66011 3.65976 8.81234 3.81254L9.99984 5.00004H16.6665C17.1248 5.00004 17.5173 5.16337 17.844 5.49004C18.1707 5.81671 18.3337 6.20893 18.3332 6.66671V8.97921C18.3332 9.21532 18.2532 9.41337 18.0932 9.57337C17.9332 9.73337 17.7354 9.8131 17.4998 9.81254C17.2643 9.81198 17.0665 9.73199 16.9065 9.57254C16.7465 9.4131 16.6665 9.21532 16.6665 8.97921V6.66671H9.99984C9.77761 6.66671 9.56567 6.62504 9.364 6.54171C9.16234 6.45837 8.98539 6.34032 8.83317 6.18754L7.64567 5.00004H3.33317V15H8.45817C8.69428 15 8.89234 15.08 9.05234 15.24C9.21234 15.4 9.29206 15.5978 9.2915 15.8334C9.29095 16.0689 9.21095 16.267 9.0515 16.4275C8.89206 16.5881 8.69428 16.6678 8.45817 16.6667H3.33317ZM14.3957 15.1042L14.0207 14.7292C13.8957 14.6042 13.7498 14.545 13.5832 14.5517C13.4165 14.5584 13.2707 14.6245 13.1457 14.75C13.0207 14.8756 12.9582 15.0214 12.9582 15.1875C12.9582 15.3537 13.0207 15.4995 13.1457 15.625L13.8123 16.2917C13.979 16.4584 14.1734 16.5417 14.3957 16.5417C14.6179 16.5417 14.8123 16.4584 14.979 16.2917L16.854 14.4375C16.979 14.3125 17.0415 14.1634 17.0415 13.99C17.0415 13.8167 16.979 13.6673 16.854 13.5417C16.729 13.4162 16.5832 13.357 16.4165 13.3642C16.2498 13.3714 16.104 13.4306 15.979 13.5417L14.3957 15.1042ZM14.9998 10.8334C16.1526 10.8334 17.1354 11.2398 17.9482 12.0525C18.7609 12.8653 19.1671 13.8478 19.1665 15C19.1659 16.1523 18.7596 17.135 17.9473 17.9484C17.1351 18.7617 16.1526 19.1678 14.9998 19.1667C13.8471 19.1656 12.8646 18.7592 12.0523 17.9475C11.2401 17.1359 10.8337 16.1534 10.8332 15C10.8326 13.8467 11.239 12.8642 12.0523 12.0525C12.8657 11.2409 13.8482 10.8345 14.9998 10.8334Z" fill="#4E83F9"/>
</svg>
