<svg width="20" height="20" viewBox="0 0 20 20" fill="none" xmlns="http://www.w3.org/2000/svg">
<path d="M3.33317 16.6666C2.87484 16.6666 2.48262 16.5035 2.1565 16.1774C1.83039 15.8513 1.66706 15.4588 1.6665 14.9999V4.99992C1.6665 4.54159 1.82984 4.14936 2.1565 3.82325C2.48317 3.49714 2.87539 3.33381 3.33317 3.33325H7.64567C7.86789 3.33325 8.07984 3.37492 8.2815 3.45825C8.48317 3.54159 8.66011 3.65964 8.81234 3.81242L9.99984 4.99992H16.6665C17.1248 4.99992 17.5173 5.16325 17.844 5.48992C18.1707 5.81659 18.3337 6.20881 18.3332 6.66659V14.9999C18.3332 15.4583 18.1701 15.8508 17.844 16.1774C17.5179 16.5041 17.1254 16.6671 16.6665 16.6666H3.33317ZM3.33317 14.9999H16.6665V6.66659H9.31234L7.64567 4.99992H3.33317V14.9999ZM11.6665 11.6666V12.4999C11.6665 12.736 11.7465 12.9341 11.9065 13.0941C12.0665 13.2541 12.2643 13.3338 12.4998 13.3333C12.7354 13.3327 12.9334 13.2527 13.094 13.0933C13.2546 12.9338 13.3343 12.736 13.3332 12.4999V11.6666H14.1665C14.4026 11.6666 14.6007 11.5866 14.7607 11.4266C14.9207 11.2666 15.0004 11.0688 14.9998 10.8333C14.9993 10.5977 14.9193 10.3999 14.7598 10.2399C14.6004 10.0799 14.4026 9.99992 14.1665 9.99992H13.3332V9.16658C13.3332 8.93047 13.2532 8.7327 13.0932 8.57325C12.9332 8.41381 12.7354 8.33381 12.4998 8.33325C12.2643 8.3327 12.0665 8.4127 11.9065 8.57325C11.7465 8.73381 11.6665 8.93159 11.6665 9.16658V9.99992H10.8332C10.5971 9.99992 10.3993 10.0799 10.2398 10.2399C10.0804 10.3999 10.0004 10.5977 9.99984 10.8333C9.99928 11.0688 10.0793 11.2669 10.2398 11.4274C10.4004 11.588 10.5982 11.6677 10.8332 11.6666H11.6665Z" fill="#454545"/>
</svg>
