<svg width="20" height="20" viewBox="0 0 20 20" fill="none" xmlns="http://www.w3.org/2000/svg">
<path d="M14.1665 14.1666H12.479C12.2429 14.1666 12.0484 14.0866 11.8957 13.9266C11.7429 13.7666 11.6665 13.5688 11.6665 13.3333C11.6665 13.0977 11.7465 12.8999 11.9065 12.7399C12.0665 12.5799 12.2643 12.4999 12.4998 12.4999H14.1665V10.8333C14.1665 10.5971 14.2465 10.3994 14.4065 10.2399C14.5665 10.0805 14.7643 10.0005 14.9998 9.99992C15.2354 9.99936 15.4334 10.0794 15.594 10.2399C15.7546 10.4005 15.8343 10.5983 15.8332 10.8333V12.4999H17.4998C17.7359 12.4999 17.934 12.5799 18.094 12.7399C18.254 12.8999 18.3337 13.0977 18.3332 13.3333C18.3326 13.5688 18.2526 13.7669 18.0932 13.9274C17.9337 14.088 17.7359 14.1677 17.4998 14.1666H15.8332V15.8333C15.8332 16.0694 15.7532 16.2674 15.5932 16.4274C15.4332 16.5874 15.2354 16.6671 14.9998 16.6666C14.7643 16.666 14.5665 16.586 14.4065 16.4266C14.2465 16.2671 14.1665 16.0694 14.1665 15.8333V14.1666ZM8.33317 14.1666H5.83317C4.68039 14.1666 3.69789 13.7602 2.88567 12.9474C2.07345 12.1346 1.66706 11.1521 1.6665 9.99992C1.66595 8.8477 2.07234 7.8652 2.88567 7.05242C3.699 6.23964 4.6815 5.83325 5.83317 5.83325H8.33317C8.56928 5.83325 8.76734 5.91325 8.92734 6.07325C9.08734 6.23325 9.16706 6.43103 9.1665 6.66659C9.16595 6.90214 9.08595 7.1002 8.9265 7.26075C8.76706 7.42131 8.56928 7.50103 8.33317 7.49992H5.83317C5.13873 7.49992 4.54845 7.74297 4.06234 8.22909C3.57623 8.7152 3.33317 9.30547 3.33317 9.99992C3.33317 10.6944 3.57623 11.2846 4.06234 11.7708C4.54845 12.2569 5.13873 12.4999 5.83317 12.4999H8.33317C8.56928 12.4999 8.76734 12.5799 8.92734 12.7399C9.08734 12.8999 9.16706 13.0977 9.1665 13.3333C9.16595 13.5688 9.08595 13.7669 8.9265 13.9274C8.76706 14.088 8.56928 14.1677 8.33317 14.1666ZM7.49984 10.8333C7.26373 10.8333 7.06595 10.7533 6.9065 10.5933C6.74706 10.4333 6.66706 10.2355 6.6665 9.99992C6.66595 9.76436 6.74595 9.56659 6.9065 9.40659C7.06706 9.24659 7.26484 9.16659 7.49984 9.16659H12.4998C12.7359 9.16659 12.934 9.24659 13.094 9.40659C13.254 9.56659 13.3337 9.76436 13.3332 9.99992C13.3326 10.2355 13.2526 10.4335 13.0932 10.5941C12.9337 10.7546 12.7359 10.8344 12.4998 10.8333H7.49984ZM18.3332 9.99992H16.6665C16.6665 9.30547 16.4234 8.7152 15.9373 8.22909C15.4512 7.74297 14.8609 7.49992 14.1665 7.49992H11.6457C11.4096 7.49992 11.2151 7.41992 11.0623 7.25992C10.9096 7.09992 10.8332 6.90214 10.8332 6.66659C10.8332 6.43103 10.9132 6.23325 11.0732 6.07325C11.2332 5.91325 11.4309 5.83325 11.6665 5.83325H14.1665C15.3193 5.83325 16.3021 6.23964 17.1148 7.05242C17.9276 7.8652 18.3337 8.8477 18.3332 9.99992Z" fill="#5D5D5D"/>
</svg>
